<svg width="54" height="54" viewBox="0 0 54 54" fill="none" xmlns="http://www.w3.org/2000/svg">
<g clip-path="url(#clip0_858_177)">
<path d="M44.1827 53.9277H9.73009C6.35961 53.9172 3.63163 51.1892 3.62109 47.8187V45.1223C3.62109 38.5288 6.39121 32.2408 11.2679 27.8065C13.3007 25.9633 16.3236 25.7105 18.6303 27.1956C21.0423 28.7439 23.9177 29.5655 26.9617 29.5655C30.0056 29.5655 32.8811 28.7439 35.2931 27.1956C37.5998 25.7105 40.6227 25.9633 42.6555 27.8065C47.5322 32.2408 50.3128 38.5288 50.3023 45.1223V47.8187C50.2917 51.1997 47.5532 53.9277 44.1827 53.9277ZM15.3441 28.3331C14.354 28.3331 13.406 28.7018 12.6793 29.3653C8.24497 33.3994 5.71711 39.1292 5.71711 45.1223V47.8187C5.72764 50.0306 7.50768 51.8106 9.71956 51.8212H44.1722C46.3841 51.8212 48.1746 50.0306 48.1746 47.8187V45.1223C48.1746 39.1292 45.6468 33.4099 41.2125 29.3653C39.8854 28.1646 37.9157 27.9961 36.4096 28.9651C33.6605 30.7346 30.3848 31.672 26.9406 31.672C23.4964 31.672 20.2207 30.7346 17.4717 28.9651C16.8502 28.5543 16.1024 28.3331 15.3441 28.3331Z" fill="#9A0107"/>
<path d="M26.9603 27.1746C19.461 27.164 13.3836 21.0866 13.373 13.5873C13.373 6.09853 19.461 6.10352e-05 26.9603 6.10352e-05C34.4596 0.0105938 40.537 6.08799 40.5476 13.5873C40.537 21.0761 34.4491 27.1746 26.9603 27.1746ZM26.9603 2.11714C20.6196 2.11714 15.4796 7.25713 15.4796 13.5978C15.4796 19.9386 20.6196 25.0786 26.9603 25.0786C33.301 25.0786 38.441 19.9386 38.441 13.5978C38.4305 7.25713 33.301 2.11714 26.9603 2.11714Z" fill="#9A0107"/>
</g>
<defs>
<clipPath id="clip0_858_177">
<rect width="53.9277" height="53.9277" fill="white"/>
</clipPath>
</defs>
</svg>
