<svg width="57" height="55" viewBox="0 0 57 55" fill="none" xmlns="http://www.w3.org/2000/svg">
<g clip-path="url(#clip0_858_187)">
<path d="M28.2259 35.5406C23.5507 35.5406 19.0519 31.3195 17.7287 25.9165C16.4937 25.4944 14.9941 24.2281 14.9941 21.1889C14.9941 20.3447 15.1706 19.5849 15.4352 18.9095C15.6998 18.3186 16.2291 17.8965 16.8466 17.7276C18.4344 17.3055 22.5804 14.0131 22.9332 10.8895C22.9332 10.5518 23.1978 10.2985 23.5507 10.2141C23.9035 10.1297 24.2564 10.2141 24.521 10.5518C27.2556 14.0975 34.93 17.5588 39.1642 17.812C39.9581 17.8965 40.752 18.3186 41.0166 19.0784C41.2813 19.6693 41.4577 20.3447 41.4577 21.1889C41.4577 24.2281 39.8699 25.4944 38.7231 25.9165C37.3999 31.3195 32.9011 35.5406 28.2259 35.5406ZM24.2564 12.8312C22.9332 16.208 19.0519 18.9939 17.3759 19.4161C17.2876 19.4161 17.1112 19.5005 17.1112 19.6693C16.9348 19.9226 16.7584 20.4291 16.7584 21.1889C16.7584 24.0592 18.4344 24.3969 18.6108 24.3969C18.9637 24.4813 19.3165 24.7346 19.4047 25.0723C20.4633 30.4753 24.7857 33.8521 28.2259 33.8521C31.6662 33.8521 35.9886 30.4753 37.0471 25.0723C37.1353 24.7346 37.3999 24.3969 37.841 24.3969C38.0174 24.3969 39.6935 24.0592 39.6935 21.1889C39.6935 20.4291 39.517 20.007 39.4288 19.7537C39.3406 19.5849 39.2524 19.5005 39.076 19.5005C34.8418 19.2472 27.8731 16.2925 24.2564 12.8312Z" fill="#9A0107"/>
<path d="M52.9249 54.1133C52.3956 54.1133 52.0428 53.7756 52.0428 53.2691C52.0428 50.0611 49.9257 47.0219 46.0444 44.6581C45.6033 44.4048 45.5151 43.8983 45.7797 43.4762C46.0444 43.0541 46.5736 42.9696 47.0147 43.2229C52.9249 46.853 53.807 51.0741 53.807 53.2691C53.807 53.7756 53.4541 54.1133 52.9249 54.1133Z" fill="#9A0107"/>
<path d="M3.52665 54.1134C2.99738 54.1134 2.64453 53.7757 2.64453 53.2692C2.64453 49.7235 4.76162 46.431 8.64294 43.8139C9.17221 43.4763 9.78969 43.0541 10.4072 42.8009C10.8482 42.5476 11.3775 42.7165 11.6421 43.1386C11.9068 43.5607 11.7304 44.0672 11.2893 44.3205C10.76 44.6582 10.2307 44.9114 9.70148 45.2491C5.29089 48.1194 4.40877 51.1586 4.40877 53.2692C4.40877 53.7757 4.05592 54.1134 3.52665 54.1134Z" fill="#9A0107"/>
<path d="M9.08329 45.4179C8.55402 45.4179 8.20117 45.0802 8.20117 44.5737C8.20117 36.3848 10.4065 27.2673 11.8179 21.7799C12.2589 20.1759 12.5236 18.8251 12.7 17.9809C14.376 9.03223 18.522 5.31768 20.8155 3.96693C22.6679 2.86945 24.6968 2.36292 26.3728 2.61619C26.9903 2.2785 28.5781 1.77197 30.8716 1.77197C42.4274 1.77197 44.9855 20.5136 44.9855 27.0984C44.9855 28.2803 45.1619 29.6311 45.3384 31.1507C45.603 33.008 45.8676 35.1185 45.8676 37.229C45.8676 37.7356 45.5148 38.0733 44.9855 38.0733C44.4562 38.0733 44.1034 37.7356 44.1034 37.229C44.1034 35.2029 43.8388 33.1768 43.5741 31.4039C43.3977 29.7999 43.2213 28.3648 43.2213 27.0984C43.2213 22.1176 41.1042 3.4604 30.8716 3.4604C28.3135 3.4604 26.9021 4.2202 26.9021 4.2202C26.7257 4.30462 26.461 4.30462 26.1964 4.30462C25.2261 4.05136 23.55 4.2202 21.6976 5.31768C19.6687 6.584 15.9638 9.96087 14.376 18.2342C14.1996 19.1628 13.8467 20.4291 13.4939 22.1176C12.1707 27.5206 9.96541 36.6381 9.96541 44.5737C9.96541 44.9958 9.61256 45.4179 9.08329 45.4179Z" fill="#9A0107"/>
<path d="M44.1023 54.1134C34.0462 54.1134 32.6348 45.5868 32.6348 36.3849C32.6348 35.8783 32.9876 35.5406 33.5169 35.5406C34.0462 35.5406 34.399 35.8783 34.399 36.3849C34.399 45.5024 35.8104 51.4963 42.3381 52.3405C41.897 51.4963 41.4559 50.3988 41.4559 49.0481C41.4559 46.0089 42.2499 43.814 42.9556 41.7878C43.573 40.1838 44.1023 38.7487 44.1023 37.2291C44.1023 36.7226 44.4552 36.3849 44.9844 36.3849C45.5137 36.3849 45.8665 36.7226 45.8665 37.2291C45.8665 39.0864 45.2491 40.6904 44.6316 42.3788C43.9259 44.3205 43.2202 46.2622 43.2202 49.0481C43.2202 51.1586 44.7198 52.6782 44.7198 52.6782C44.9844 52.9315 44.9844 53.2692 44.8962 53.6069C44.808 53.9446 44.4552 54.1134 44.1023 54.1134Z" fill="#9A0107"/>
<path d="M12.3486 54.1133C11.9957 54.1133 11.6429 53.9445 11.5547 53.6068C11.3783 53.2691 11.4665 52.9314 11.7311 52.6781C11.7311 52.6781 13.2307 51.243 13.2307 49.048C13.2307 46.4309 12.9661 44.4048 12.7014 42.5475C12.525 40.9435 12.3486 39.5084 12.3486 37.8199C12.3486 35.7938 12.6132 33.6833 13.2307 31.0662C13.3189 30.6441 13.8482 30.3064 14.2892 30.3908C14.7303 30.4753 15.0831 30.9818 14.9949 31.4039C14.3775 33.8521 14.1128 35.8782 14.1128 37.7355C14.1128 39.2551 14.2892 40.6903 14.4657 42.2099C14.7303 44.0671 14.9949 46.1777 14.9949 48.8792C14.9949 50.2299 14.5539 51.3274 14.1128 52.1716C20.6405 51.3274 22.0519 45.3334 22.0519 36.2159C22.0519 35.7094 22.4047 35.3717 22.934 35.3717C23.4633 35.3717 23.8161 35.7094 23.8161 36.2159C23.8161 45.5867 22.4047 54.1133 12.3486 54.1133Z" fill="#9A0107"/>
<path d="M28.2272 52.4249C28.139 52.4249 27.9626 52.4249 27.8743 52.3405C26.0219 51.5807 24.3459 50.3144 23.1109 48.7104C22.8463 48.3727 22.9345 47.7817 23.2873 47.5285C23.6402 47.2752 24.2577 47.3596 24.5223 47.6973C25.4926 48.9637 26.7276 49.9767 28.2272 50.6521C29.7268 49.9767 30.9618 48.9637 31.9321 47.6973C32.1967 47.3596 32.8142 47.2752 33.167 47.5285C33.5199 47.7817 33.6081 48.3727 33.3435 48.7104C32.1085 50.3144 30.4325 51.5807 28.58 52.3405C28.4918 52.4249 28.3154 52.4249 28.2272 52.4249Z" fill="#9A0107"/>
</g>
<defs>
<clipPath id="clip0_858_187">
<rect width="56.4556" height="54.0298" fill="white" transform="translate(0 0.927734)"/>
</clipPath>
</defs>
</svg>
