<svg width="55" height="56" viewBox="0 0 55 56" fill="none" xmlns="http://www.w3.org/2000/svg">
<g clip-path="url(#clip0_858_207)">
<path d="M27.3861 14.4362C26.7957 14.4362 26.3164 14.9154 26.3164 15.5059C26.3164 16.0963 26.7957 16.5756 27.3861 16.5756C27.9766 16.5756 28.4559 16.0963 28.4559 15.5059C28.4559 14.9154 27.9766 14.4362 27.3861 14.4362Z" fill="#9A0107"/>
<path d="M9.62637 33.6913C10.2168 33.6913 10.6961 33.2121 10.6961 32.6216C10.6961 32.0312 10.2168 31.5519 9.62637 31.5519C9.03593 31.5519 8.55664 32.0312 8.55664 32.6216C8.55664 33.2121 9.03593 33.6913 9.62637 33.6913Z" fill="#9A0107"/>
<path d="M35.943 3.73889C26.3125 3.73889 18.4082 10.3788 17.7968 18.7423C8.62514 19.2024 0 25.8159 0 34.7611C0 38.4994 1.47924 42.1214 4.17196 44.9913C4.70474 47.1876 4.05788 49.5155 2.45286 51.1205C2.14699 51.4264 2.05548 51.8865 2.22095 52.2864C2.38642 52.6859 2.77629 52.9466 3.2092 52.9466C6.26003 52.9466 9.20012 51.7503 11.3847 49.6421C13.5129 50.3675 16.2896 50.8071 18.8273 50.8071C28.4566 50.8071 36.3601 44.1689 36.9731 35.8071C39.2128 35.7076 41.5424 35.2939 43.3856 34.6659C45.5702 36.774 48.5103 37.9703 51.5611 37.9703C51.994 37.9703 52.3839 37.7096 52.5494 37.3101C52.7149 36.9102 52.6233 36.4502 52.3175 36.1443C50.7124 34.5393 50.0656 32.2113 50.5984 30.015C53.2911 27.1452 54.7703 23.5231 54.7703 19.7849C54.7703 10.4903 45.4808 3.73889 35.943 3.73889ZM18.8273 48.6677C16.3026 48.6677 13.4256 48.1721 11.4984 47.4053C11.0855 47.2407 10.6138 47.3489 10.3133 47.6769C9.02169 49.0889 7.3423 50.0734 5.51247 50.5259C6.52077 48.5941 6.77818 46.3168 6.16475 44.1589C6.11628 43.9888 6.02644 43.8334 5.90317 43.7068C3.47621 41.2071 2.13947 38.0301 2.13947 34.7611C2.13947 27.2229 9.78137 20.8546 18.8273 20.8546C27.3693 20.8546 34.8733 26.7946 34.8733 34.7611C34.8733 42.4294 27.6752 48.6677 18.8273 48.6677ZM48.8672 28.7305C48.7439 28.8576 48.654 29.013 48.6056 29.1827C47.9921 31.3405 48.2496 33.6179 49.2579 35.5497C47.428 35.0975 45.7486 34.1126 44.457 32.7007C44.1566 32.3731 43.6848 32.2644 43.272 32.429C41.6017 33.0935 39.2191 33.5535 36.9697 33.6647C36.6572 29.6193 34.6393 25.8172 31.1894 22.9941H45.1427C45.7336 22.9941 46.2125 22.5152 46.2125 21.9244C46.2125 21.3335 45.7336 20.8546 45.1427 20.8546H27.9029C25.4747 19.6186 22.7481 18.8978 19.9417 18.7465C20.5564 11.5617 27.4984 5.87836 35.943 5.87836C44.989 5.87836 52.6309 12.2466 52.6309 19.7849C52.6309 23.0538 51.2941 26.2309 48.8672 28.7305Z" fill="#9A0107"/>
<path d="M27.3843 31.5519H13.9057C13.3148 31.5519 12.8359 32.0308 12.8359 32.6216C12.8359 33.2125 13.3148 33.6913 13.9057 33.6913H27.3843C27.9752 33.6913 28.454 33.2125 28.454 32.6216C28.454 32.0308 27.9752 31.5519 27.3843 31.5519Z" fill="#9A0107"/>
<path d="M27.3839 37.9703H9.62637C9.03551 37.9703 8.55664 38.4492 8.55664 39.0401C8.55664 39.6309 9.03551 40.1098 9.62637 40.1098H27.3839C27.9748 40.1098 28.4537 39.6309 28.4537 39.0401C28.4537 38.4492 27.9748 37.9703 27.3839 37.9703Z" fill="#9A0107"/>
<path d="M45.1421 14.4362H31.6635C31.0726 14.4362 30.5938 14.915 30.5938 15.5059C30.5938 16.0968 31.0726 16.5756 31.6635 16.5756H45.1421C45.733 16.5756 46.2119 16.0968 46.2119 15.5059C46.2119 14.915 45.733 14.4362 45.1421 14.4362Z" fill="#9A0107"/>
</g>
<defs>
<clipPath id="clip0_858_207">
<rect width="54.7703" height="54.7703" fill="white" transform="translate(0 0.95752)"/>
</clipPath>
</defs>
</svg>
